# Blender v2.81 (sub 16) OBJ File: ''
# www.blender.org
mtllib Ferns.mtl
o ferns_1_ferns_1.001
v -0.575111 0.006443 -0.077612
v 1.005016 0.006442 -0.077612
v 0.490429 3.390507 0.537215
v 0.214952 0.031960 0.142974
v -0.182250 3.242368 0.821409
v -0.631043 2.314487 1.042691
v -0.685617 1.625600 1.272052
v -0.685617 0.708479 0.899207
v 1.115522 0.708478 0.899207
v 0.927952 1.786186 1.213232
v 0.714317 2.719872 1.074021
v 0.214952 0.733996 1.119793
v 0.214953 1.651118 1.492638
v 0.041637 2.571734 1.358215
v 0.624200 -0.295850 -0.027961
v -0.232897 0.056447 -0.036922
v -0.458656 -1.627134 3.058680
v -0.741772 -1.470026 3.008165
v 0.233132 -0.029779 0.070118
v 0.291650 -0.944156 2.196786
v -0.250843 0.071036 1.045175
v -0.597577 -0.660991 2.266608
v 0.611790 -0.271282 1.054940
v -0.063334 -0.672455 2.303278
v -0.145659 0.373970 0.028513
v 0.606974 -0.295389 0.112657
v 1.137041 2.018412 1.951692
v 1.889675 1.349053 2.035836
v 0.187766 0.003305 0.156728
v 1.470466 1.647746 2.079906
v 0.717128 1.463969 2.037461
v 0.603216 -0.175061 1.139881
v 0.906609 0.240903 1.817679
v 1.433730 0.860071 2.139426
v -0.029111 0.300284 1.119515
v 0.315131 0.737963 1.951349
v -0.195498 -0.289234 -0.028726
v 0.322040 0.477399 -0.085619
v -2.019277 1.189354 2.388080
v -1.462088 1.952012 2.377804
v 0.131598 0.054896 0.060322
v -1.009022 0.460918 2.034247
v 0.218105 0.640709 0.979274
v -0.624356 1.270569 1.938268
v -0.290939 -0.133065 1.038951
v -0.684713 0.754583 2.002698
v 0.584171 -0.698680 -0.055648
v -0.173436 0.687449 -0.094097
v -1.623078 -2.239531 0.777886
v -2.609895 -1.236442 1.094936
v 0.240416 0.019583 0.142949
v -2.090274 -1.687104 1.556830
v -1.039589 -1.647365 1.312510
v -0.376460 -1.306735 1.669427
v 0.297924 -0.949303 1.090865
v -0.543778 0.653201 1.100241
v -1.219786 0.100986 1.649579
v -2.016894 -0.619084 1.652951
v -1.497274 -1.106893 1.793730
v 0.574746 0.645715 -0.111907
v -0.218550 -0.707370 -0.102135
v 2.956678 -0.203771 1.866339
v 2.587491 -1.613533 1.814991
v 2.706100 -0.906830 2.034114
v 1.999041 -0.072553 1.876866
v 1.472950 0.302562 1.747289
v 0.835591 0.290376 1.110593
v -0.035936 -0.583184 1.029833
v 0.872676 -1.204920 1.742146
v 1.787044 -1.445946 1.948611
v 1.279883 -0.528095 2.030764
v 0.049292 0.562691 -0.154863
v 0.407003 -0.550885 -0.036822
v 3.153683 1.577444 0.314341
v 3.511393 0.463867 0.432383
v 0.228147 0.037582 0.178004
v 3.332538 1.052335 0.647209
v 2.499372 1.630621 0.870687
v 1.637725 1.383957 1.057550
v 0.750215 0.882068 0.769106
v 1.107926 -0.231509 0.887147
v 1.995436 0.078078 1.197837
v 2.857082 0.324742 1.010975
v 0.929071 0.356959 1.101973
v 1.816581 0.858848 1.390417
v 2.678227 1.105512 1.203555
v 0.212836 -0.575350 0.128147
v 0.186196 0.590844 -0.017540
v -3.034646 -0.545933 0.711338
v -3.061286 0.620260 0.565650
v 0.199516 0.021478 0.174005
v -3.047966 0.050895 0.757195
v -2.349159 -0.470382 1.265095
v -0.545808 0.696197 0.931187
v -1.473961 0.725911 1.274254
v -2.375799 0.695812 1.119408
v -0.521431 -0.469140 1.154670
v -1.441113 -0.443042 1.475333
v -2.362479 0.126447 1.310953
v 1.006446 0.354078 0.072586
v -0.576541 -0.354078 -0.195176
v 2.250940 -2.875569 1.256758
v 0.667953 -3.583725 0.988997
v 0.214952 0.040744 0.290913
v 1.459446 -3.188903 1.475086
v 1.834738 -2.171696 1.423783
v 1.417634 -1.206267 1.768355
v 1.101996 -0.298707 1.234138
v -0.480991 -1.006863 0.966376
v -0.165353 -1.888780 1.722268
v 0.251751 -2.841587 1.486797
v 0.310503 -0.612041 1.452465
v 0.626141 -1.519601 1.986683
v 1.043245 -2.446765 1.972886
vt 1.000000 0.611100
vt 0.998027 1.000000
vt 0.500000 0.578017
vt 0.500000 0.000000
vt -0.001815 0.250000
vt 0.000000 0.000000
vt 0.500000 0.000000
vt 0.029755 0.250000
vt 0.000000 0.000000
vt 0.036046 0.500000
vt 1.006960 0.750000
vt 0.000000 0.750000
vt 1.000000 0.500000
vt 1.000000 0.611099
vt 0.998027 1.000000
vt 0.500000 0.578017
vt 0.500000 0.000000
vt -0.001815 0.250000
vt 0.000000 0.000000
vt 0.500000 1.000000
vt 1.000000 0.750000
vt 1.000000 1.000000
vt 0.500000 0.583156
vt 0.000000 0.750000
vt 0.000000 0.500000
vt 1.003377 0.250000
vt 1.000000 0.500000
vt 0.500000 0.000000
vt 0.005731 0.250000
vt 0.000000 0.000000
vt 0.001131 0.500000
vt 0.500000 0.750000
vt 0.000000 0.750000
vt 0.000000 0.750000
vt 0.500000 0.750000
vt 0.000000 0.250000
vt 0.500000 0.000000
vt 0.500000 0.250000
vt 0.000000 0.500000
vt 0.500000 0.500000
vt 1.000000 0.250000
vt 1.000000 0.000000
vt 1.000000 0.500000
vt 0.000000 1.000000
vt 1.000000 0.250000
vt 1.000000 0.000000
vt 0.000000 0.583990
vt 0.500000 1.000000
vt 1.000000 1.000000
vt 1.000000 0.250000
vt 1.000000 0.000000
vt 0.000000 1.000000
vt 1.000000 0.250000
vt 1.000000 0.000000
vt 0.000000 0.583992
vt 0.500000 1.000000
vt 1.000000 0.750000
vt 1.000000 1.000000
vt 0.000000 0.750000
vt 0.500000 0.750000
vt 0.000000 0.250000
vt 0.500000 0.000000
vt 1.000429 0.250000
vt 0.994745 0.500000
vt 0.000000 0.500000
vt 0.500000 1.000000
vt 1.000000 0.750000
vt 1.000000 1.000000
vt 1.000000 0.000000
vt 0.000000 0.250000
vt 0.008446 0.000000
vt 0.500000 1.000000
vt 1.000000 0.750000
vt 1.000000 1.000000
vt 1.000000 0.000000
vt 0.000000 0.750000
vt 0.500000 0.750000
vt 0.000000 0.250000
vt 0.500000 0.000000
vt 0.500000 0.250000
vt 0.500000 0.500000
vt 0.000000 0.500000
vt 1.000000 0.250000
vt 1.000000 0.000000
vt 1.000000 0.500000
vt 0.500000 1.000000
vt 1.000000 0.750000
vt 1.000000 1.000000
vt 1.000000 0.250000
vt 1.000000 0.000000
vt 1.000000 0.500000
vt 0.500000 1.000000
vt 1.000000 0.750000
vt 1.000000 1.000000
vt 0.000000 0.750000
vt 0.500000 0.750000
vt 0.000000 0.250000
vt 0.500000 0.000000
vt 0.500000 0.250000
vt 0.000000 0.500000
vt 0.500000 0.500000
vt 1.000000 0.250000
vt 1.000000 0.000000
vt 1.000000 0.500000
vt 0.000000 0.000000
vt 0.000000 1.000000
vt 0.000000 1.000000
vt 0.000000 0.000000
vt 0.000000 1.000000
vt 0.000000 1.000000
vt 0.000000 0.000000
vt 0.000000 1.000000
vt 0.000000 1.000000
vt 0.000000 0.000000
vn -0.0272 0.7701 0.6373
vn 0.1247 0.5954 0.7937
vn 0.3011 0.6857 0.6627
vn 0.3784 0.9255 0.0131
vn 0.4156 0.8698 0.2658
vn 0.5604 0.8282 -0.0124
vn -0.6568 -0.7505 0.0730
vn -0.5858 -0.7387 0.3333
vn -0.7491 -0.6616 0.0353
vn -0.3007 -0.4472 0.8424
vn -0.0575 -0.0614 0.9965
vn -0.1246 0.0668 0.9900
vn -0.3188 -0.5572 0.7668
vn 0.6018 0.0293 0.7981
vn 0.2866 -0.1120 0.9515
vn 0.5374 -0.2098 0.8168
vn 0.8221 -0.5393 0.1826
vn 0.7348 -0.5099 0.4473
vn 0.6933 -0.7016 0.1646
vn -0.0525 0.6133 0.7881
vn 0.2577 0.4600 0.8497
vn 0.1699 0.6498 0.7409
vn -0.3221 0.1495 0.9348
vn 0.0349 0.2612 0.9647
vn -0.4153 0.3788 0.8271
vn -0.7411 0.4915 0.4574
vn -0.4778 -0.0853 0.8743
vn 0.7936 0.1053 0.5993
vn 0.5757 0.1375 0.8061
vn 0.8117 -0.0267 0.5834
vn 0.1048 0.1266 0.9864
vn -0.3948 0.1139 0.9117
vn -0.4418 -0.0785 0.8937
vn -0.4068 0.2733 0.8717
vn -0.1036 0.3615 0.9266
vn -0.1713 -0.6295 0.7579
vn -0.0000 -0.8163 0.5777
vn 0.0245 -0.5773 0.8162
vn -0.2367 -0.0395 0.9708
vn 0.0633 -0.0992 0.9931
vn 0.1790 -0.5937 0.7845
vn 0.1325 -0.8119 0.5685
vn 0.3359 -0.0534 0.9404
vn 0.2451 0.5371 0.8071
vn 0.2896 0.9182 0.2702
vn 0.1842 0.9828 -0.0102
vn 0.5807 0.5099 0.6347
vn -0.0191 0.1260 0.9918
vn 0.1517 0.0674 0.9861
vn -0.5623 -0.7418 0.3654
vn -0.5712 -0.8155 0.0934
vn 0.2280 -0.1527 0.9616
vn 0.7972 -0.4019 0.4505
vn 0.9198 -0.3643 0.1456
vn 0.3741 -0.3197 0.8705
vn -0.1962 -0.3999 0.8953
vn -0.3306 0.0460 0.9426
vn -0.6739 -0.0202 0.7385
vn 0.0923 -0.6765 0.7306
vn -0.0278 -0.1927 0.9809
vn 0.7039 0.3581 0.6134
vn 0.8327 0.4497 0.3231
vn 0.6825 0.3932 0.6161
vn 0.2872 0.2081 0.9350
vn 0.3113 0.0048 0.9503
vn 0.0424 0.0041 0.9991
vn -0.0664 -0.1926 0.9790
vn 0.0933 -0.3091 0.9464
vn 0.7777 0.5734 0.2576
vn -0.6395 0.5418 0.5454
vn -0.7777 0.5895 0.2185
vn 0.6488 0.2350 0.7237
vn 0.4785 -0.1136 0.8707
vn 0.6689 -0.0670 0.7403
vn -0.8594 0.5045 0.0833
vn 0.3178 0.5825 0.7481
vn 0.3870 0.2680 0.8823
vn -0.6733 0.2184 0.7063
vn -0.7549 -0.1733 0.6326
vn -0.5309 -0.0918 0.8424
vn -0.0914 0.1454 0.9851
vn -0.2207 0.4675 0.8560
vn -0.4622 -0.4247 0.7785
vn -0.6430 -0.4274 0.6355
vn 0.0348 -0.2537 0.9667
vn -0.6317 0.0827 0.7707
vn -0.4248 0.2797 0.8610
vn -0.6263 0.2354 0.7432
vn 0.5833 0.1780 0.7925
vn 0.7847 0.2141 0.5817
vn 0.1161 0.2047 0.9719
vn 0.1669 -0.4011 0.9007
vn -0.2514 -0.5093 0.8230
vn -0.1687 -0.6126 0.7722
vn 0.5105 -0.0898 0.8552
vn 0.1338 -0.2787 0.9510
vn -0.1046 0.7327 0.6724
vn -0.4075 0.7814 0.4726
vn -0.3408 0.6174 0.7090
vn 0.2297 0.2881 0.9296
vn -0.1187 0.2099 0.9705
vn -0.6181 0.5603 0.5514
vn -0.6002 0.6752 0.4288
vn -0.4393 0.0603 0.8963
vn -0.1325 -0.8119 0.5685
vn -0.1115 0.2338 0.9659
vn 0.1766 -0.7498 0.6377
vn 0.8906 0.3440 0.2975
vn 0.0406 0.2182 0.9751
vn 0.5580 0.5715 0.6017
vn -0.8085 0.0930 0.5811
vn -0.6218 -0.0738 0.7797
vn 0.2866 -0.0575 0.9563
vn -0.1995 0.8471 0.4925
usemtl ferns_1.001
s 1
f 22/1/1 18/2/2 24/3/3
f 19/4/4 23/5/5 15/6/6
f 29/7/7 35/8/8 25/9/9
f 36/10/10 34/11/11 31/12/12
f 33/13/13 34/11/11 36/10/10
f 44/14/14 40/15/15 46/16/16
f 41/17/17 45/18/18 37/19/19
f 5/20/20 11/21/21 3/22/22
f 71/23/23 65/24/24 66/25/25
f 68/26/26 69/27/27 71/23/23
f 91/28/28 97/29/29 87/30/30
f 98/31/31 99/32/32 93/33/33
f 5/20/20 6/34/34 14/35/35
f 8/36/36 4/37/37 12/38/38
f 7/39/39 12/38/38 13/40/40
f 6/34/34 13/40/40 14/35/35
f 9/41/41 4/37/37 2/42/42
f 10/43/43 12/38/38 9/41/41
f 14/35/35 10/43/43 11/21/21
f 17/44/44 24/3/3 18/2/2
f 21/45/45 19/4/4 16/46/46
f 23/5/5 24/3/3 20/47/47
f 24/3/3 21/45/45 22/1/1
f 30/48/48 31/12/12 34/11/11
f 34/11/11 28/49/49 30/48/48
f 32/50/50 29/7/7 26/51/51
f 33/13/13 35/8/8 32/50/50
f 39/52/52 46/16/16 40/15/15
f 43/53/53 41/17/17 38/54/54
f 45/18/18 46/16/16 42/55/55
f 46/16/16 43/53/53 44/14/14
f 52/56/56 58/57/57 50/58/58
f 52/56/56 53/59/59 59/60/60
f 55/61/61 51/62/62 56/63/63
f 55/61/61 57/64/64 54/65/65
f 59/60/60 54/65/65 57/64/64
f 64/66/66 70/67/67 63/68/68
f 51/62/62 48/69/69 56/63/63
f 57/64/64 58/57/57 59/60/60
f 64/66/66 65/24/24 71/23/23
f 71/23/23 67/70/70 68/26/26
f 60/71/71 68/26/26 67/70/70
f 77/72/72 83/73/73 75/74/74
f 60/71/71 61/75/75 68/26/26
f 69/27/27 70/67/67 71/23/23
f 77/72/72 78/76/76 86/77/77
f 80/78/78 76/79/79 84/80/80
f 85/81/81 80/78/78 84/80/80
f 86/77/77 79/82/82 85/81/81
f 81/83/83 76/79/79 73/84/84
f 82/85/85 84/80/80 81/83/83
f 83/73/73 85/81/81 82/85/85
f 92/86/86 96/87/87 90/88/88
f 92/86/86 93/33/33 99/32/32
f 94/89/89 91/28/28 88/90/90
f 95/91/91 97/29/29 94/89/89
f 99/32/32 95/91/91 96/87/87
f 105/92/92 111/93/93 103/94/94
f 105/92/92 106/95/95 114/96/96
f 108/97/97 104/98/98 112/99/99
f 107/100/100 112/99/99 113/101/101
f 114/96/96 107/100/100 113/101/101
f 109/102/102 104/98/98 101/103/103
f 110/104/104 112/99/99 109/102/102
f 114/96/96 110/104/104 111/93/93
f 5/20/20 14/35/35 11/21/21
f 8/36/36 1/105/105 4/37/37
f 7/39/39 8/36/36 12/38/38
f 6/34/34 7/39/39 13/40/40
f 9/41/41 12/38/38 4/37/37
f 10/43/43 13/40/40 12/38/38
f 14/35/35 13/40/40 10/43/43
f 17/44/44 20/47/47 24/3/3
f 21/45/45 23/5/5 19/4/4
f 24/3/3 23/5/5 21/45/45
f 30/48/48 27/106/106 31/12/12
f 32/50/50 35/8/8 29/7/7
f 33/13/13 36/10/10 35/8/8
f 39/52/52 42/55/55 46/16/16
f 43/53/53 45/18/18 41/17/17
f 46/16/16 45/18/18 43/53/53
f 52/56/56 59/60/60 58/57/57
f 52/56/56 49/107/107 53/59/59
f 55/61/61 47/108/108 51/62/62
f 55/61/61 56/63/63 57/64/64
f 59/60/60 53/59/59 54/65/65
f 64/66/66 71/23/23 70/67/67
f 64/66/66 62/109/109 65/24/24
f 71/23/23 66/25/25 67/70/70
f 77/72/72 86/77/77 83/73/73
f 77/72/72 74/110/110 78/76/76
f 80/78/78 72/111/111 76/79/79
f 85/81/81 79/82/82 80/78/78
f 86/77/77 78/76/76 79/82/82
f 81/83/83 84/80/80 76/79/79
f 82/85/85 85/81/81 84/80/80
f 83/73/73 86/77/77 85/81/81
f 92/86/86 99/32/32 96/87/87
f 92/86/86 89/112/112 93/33/33
f 94/89/89 97/29/29 91/28/28
f 95/91/91 98/31/31 97/29/29
f 99/32/32 98/31/31 95/91/91
f 105/92/92 114/96/96 111/93/93
f 105/92/92 102/113/113 106/95/95
f 108/97/97 100/114/114 104/98/98
f 107/100/100 108/97/97 112/99/99
f 114/96/96 106/95/95 107/100/100
f 109/102/102 112/99/99 104/98/98
f 110/104/104 113/101/101 112/99/99
f 114/96/96 113/101/101 110/104/104
